<svg width="1823" height="468" viewBox="0 0 1823 468" fill="none" xmlns="http://www.w3.org/2000/svg">
<g clip-path="url(#clip0_0_9)">
<path d="M582.206 263.412C624.75 263.412 654.982 241.02 654.982 203.233C654.982 161.807 621.672 151.45 592 142.493C561.491 133.256 556.734 127.098 556.734 118.141C556.734 110.304 563.731 103.306 577.726 103.306C595.639 103.306 604.876 111.983 611.597 125.979L649.383 103.866C635.109 75.0357 609.917 59.6409 577.726 59.6409C543.858 59.6409 511.95 81.4737 511.95 119.261C511.95 156.768 540.5 170.764 569.61 178.881C599.001 186.998 610.194 191.757 610.194 203.792C610.194 211.35 604.876 219.747 583.604 219.747C561.491 219.747 549.456 208.831 542.459 192.596L503.831 214.989C514.747 243.819 541.061 263.412 582.206 263.412Z" fill="#07847F"/>
<path d="M759.655 115.622C740.9 115.622 727.186 122.06 717.949 132.696V119.541H675.963V315.475H717.949V246.338C727.186 256.975 740.9 263.412 759.655 263.412C796.324 263.412 826.553 231.223 826.553 189.517C826.553 147.811 796.324 115.622 759.655 115.622ZM751.256 223.666C731.944 223.666 717.949 210.51 717.949 189.517C717.949 168.524 731.944 155.369 751.256 155.369C770.572 155.369 784.566 168.524 784.566 189.517C784.566 210.51 770.572 223.666 751.256 223.666Z" fill="#07847F"/>
<path d="M951.962 119.541V132.696C942.725 122.06 929.011 115.622 910.256 115.622C873.591 115.622 843.359 147.811 843.359 189.517C843.359 231.223 873.591 263.412 910.256 263.412C929.011 263.412 942.725 256.975 951.962 246.338V259.494H993.949V119.541H951.962ZM918.655 223.666C899.34 223.666 885.345 210.51 885.345 189.517C885.345 168.524 899.34 155.369 918.655 155.369C937.968 155.369 951.962 168.524 951.962 189.517C951.962 210.51 937.968 223.666 918.655 223.666Z" fill="#07847F"/>
<path d="M1091.93 263.412C1119.36 263.412 1143.15 249.137 1155.19 227.304L1118.52 206.311C1114.04 216.108 1103.68 221.986 1091.37 221.986C1073.18 221.986 1059.74 208.831 1059.74 189.517C1059.74 170.204 1073.18 157.048 1091.37 157.048C1103.68 157.048 1113.76 162.926 1118.52 172.723L1155.19 151.45C1143.15 129.897 1119.08 115.622 1091.93 115.622C1049.38 115.622 1017.76 147.811 1017.76 189.517C1017.76 231.223 1049.38 263.412 1091.93 263.412Z" fill="#07847F"/>
<path d="M1206.86 206.311H1306.22C1307.35 200.993 1307.9 195.395 1307.9 189.517C1307.9 147.251 1277.68 115.622 1236.81 115.622C1192.58 115.622 1162.35 147.811 1162.35 189.517C1162.35 231.223 1192.02 263.412 1239.89 263.412C1266.48 263.412 1287.19 253.616 1300.91 234.582L1267.32 215.269C1261.72 221.427 1251.92 225.905 1240.45 225.905C1225.05 225.905 1212.18 220.867 1206.86 206.311ZM1206.02 174.962C1209.94 160.687 1220.58 152.85 1236.53 152.85C1249.13 152.85 1261.72 158.728 1266.2 174.962H1206.02Z" fill="#07847F"/>
<path d="M1424.9 111.542C1406.43 111.542 1392.43 118.259 1384.88 128.616V59.4794H1342.89V255.413H1384.88V178.999C1384.88 159.126 1395.51 150.169 1410.91 150.169C1424.34 150.169 1435.26 158.286 1435.26 175.64V255.413H1477.25V169.482C1477.25 131.695 1453.17 111.542 1424.9 111.542Z" fill="#FD6B36"/>
<path d="M1596.49 115.461V191.875C1596.49 211.748 1585.85 220.705 1570.46 220.705C1557.02 220.705 1546.1 212.588 1546.1 195.234V115.461H1504.12V201.391C1504.12 239.179 1528.19 259.332 1556.46 259.332C1574.94 259.332 1588.93 252.615 1596.49 242.258V255.413H1638.47V115.461H1596.49Z" fill="#FD6B36"/>
<path d="M1752.96 111.542C1734.2 111.542 1720.49 117.98 1711.25 128.616V59.4794H1669.26V255.413H1711.25V242.258C1720.49 252.894 1734.2 259.332 1752.96 259.332C1789.62 259.332 1819.85 227.143 1819.85 185.437C1819.85 143.731 1789.62 111.542 1752.96 111.542ZM1744.56 219.585C1725.24 219.585 1711.25 206.43 1711.25 185.437C1711.25 164.444 1725.24 151.288 1744.56 151.288C1763.87 151.288 1777.87 164.444 1777.87 185.437C1777.87 206.43 1763.87 219.585 1744.56 219.585Z" fill="#FD6B36"/>
<path d="M545.818 325.971H512.511V423.939H519.929V386.569H545.818C563.455 386.569 576.331 373.553 576.331 356.341C576.331 338.987 563.455 325.971 545.818 325.971ZM545.818 379.572H519.929V332.969H545.818C559.255 332.969 568.913 342.765 568.913 356.341C568.913 369.778 559.255 379.572 545.818 379.572Z" fill="#ADAFBB"/>
<path d="M598.181 367.678V353.962H591.184V423.939H598.181V385.031C598.181 367.117 609.518 359.699 621.553 359.699V352.982C612.039 352.982 602.942 356.62 598.181 367.678Z" fill="#ADAFBB"/>
<path d="M662.853 425.478C683.147 425.478 699.521 409.664 699.521 388.95C699.521 368.235 683.147 352.422 662.853 352.422C642.419 352.422 626.044 368.235 626.044 388.95C626.044 409.664 642.419 425.478 662.853 425.478ZM662.853 418.761C646.198 418.761 633.181 405.605 633.181 388.95C633.181 372.295 646.198 359.14 662.853 359.14C679.508 359.14 692.384 372.295 692.384 388.95C692.384 405.605 679.508 418.761 662.853 418.761Z" fill="#ADAFBB"/>
<path d="M752.748 352.422C739.174 352.422 728.395 359.42 722.66 370.195V353.962H715.662V451.928H722.66V407.705C728.395 418.481 739.174 425.478 752.748 425.478C772.761 425.478 788.996 409.664 788.996 388.95C788.996 368.235 772.761 352.422 752.748 352.422ZM752.327 418.761C735.672 418.761 722.66 405.605 722.66 388.95C722.66 372.295 735.672 359.14 752.327 359.14C768.982 359.14 781.999 372.295 781.999 388.95C781.999 405.605 768.982 418.761 752.327 418.761Z" fill="#ADAFBB"/>
<path d="M839.626 360.817V353.962H818.772V334.368L811.634 336.467V353.962H796.241V360.817H811.634V406.303C811.634 422.26 821.292 426.737 839.626 423.939V417.64C825.352 418.898 818.772 418.621 818.772 406.303V360.817H839.626Z" fill="#ADAFBB"/>
<path d="M882.969 352.422C861.556 352.422 846.721 368.375 846.721 388.95C846.721 410.082 861.977 425.478 883.529 425.478C897.384 425.478 908.3 419.179 914.039 409.664L907.883 406.026C903.823 413.44 895.147 418.761 883.67 418.761C867.716 418.761 855.678 408.402 853.998 392.589H917.397C917.397 391.47 917.537 390.349 917.537 389.23C917.537 370.055 904.244 352.422 882.969 352.422ZM882.969 359.14C896.686 359.14 908.721 368.656 910.26 385.732H853.998C855.401 370.195 867.015 359.14 882.969 359.14Z" fill="#ADAFBB"/>
<path d="M965.244 425.478C978.958 425.478 990.716 418.481 996.315 407.705L990.436 404.206C985.815 412.883 976.581 418.761 965.244 418.761C948.309 418.761 935.573 405.605 935.573 388.95C935.573 372.295 948.309 359.14 965.244 359.14C976.441 359.14 985.955 364.877 990.015 373.693L995.754 370.335C990.716 359.42 978.958 352.422 965.244 352.422C944.109 352.422 928.436 368.235 928.436 388.95C928.436 409.664 944.109 425.478 965.244 425.478Z" fill="#ADAFBB"/>
<path d="M1042.99 352.422C1032.22 352.422 1023.26 356.901 1017.94 367.257V325.971H1010.95V423.939H1017.94V386.99C1017.94 368.095 1028.72 359.14 1042.44 359.14C1055.59 359.14 1063.01 367.538 1063.01 380.414V423.939H1070.14V380.414C1070.14 363.478 1059.65 352.422 1042.99 352.422Z" fill="#ADAFBB"/>
<path d="M1157.9 425.478C1171.62 425.478 1183.38 418.481 1188.97 407.705L1183.09 404.206C1178.48 412.883 1169.24 418.761 1157.9 418.761C1140.97 418.761 1128.23 405.605 1128.23 388.95C1128.23 372.295 1140.97 359.14 1157.9 359.14C1169.1 359.14 1178.61 364.877 1182.67 373.693L1188.41 370.335C1183.38 359.42 1171.62 352.422 1157.9 352.422C1136.77 352.422 1121.09 368.235 1121.09 388.95C1121.09 409.664 1136.77 425.478 1157.9 425.478Z" fill="#ADAFBB"/>
<path d="M1234.97 425.478C1255.26 425.478 1271.64 409.664 1271.64 388.95C1271.64 368.235 1255.26 352.422 1234.97 352.422C1214.54 352.422 1198.16 368.235 1198.16 388.95C1198.16 409.664 1214.54 425.478 1234.97 425.478ZM1234.97 418.761C1218.31 418.761 1205.3 405.605 1205.3 388.95C1205.3 372.295 1218.31 359.14 1234.97 359.14C1251.62 359.14 1264.5 372.295 1264.5 388.95C1264.5 405.605 1251.62 418.761 1234.97 418.761Z" fill="#ADAFBB"/>
<path d="M1362.51 352.422C1353.14 352.422 1344.18 356.901 1339.14 366.696C1335.5 357.46 1327.53 352.422 1317.31 352.422C1308.35 352.422 1299.95 356.341 1294.78 365.999V353.962H1287.78V423.939H1294.78V384.89C1294.78 366.977 1304.99 359.14 1316.47 359.14C1327.24 359.14 1334.38 366.276 1334.38 379.572V423.939H1341.38V384.89C1341.38 366.977 1350.62 359.14 1362.37 359.14C1373.29 359.14 1380.99 366.276 1380.99 379.572V423.939H1387.99V379.572C1387.99 362.079 1377.35 352.422 1362.51 352.422Z" fill="#ADAFBB"/>
<path d="M1444.16 352.422C1430.59 352.422 1419.81 359.42 1414.08 370.195V353.962H1407.08V451.928H1414.08V407.705C1419.81 418.481 1430.59 425.478 1444.16 425.478C1464.18 425.478 1480.41 409.664 1480.41 388.95C1480.41 368.235 1464.18 352.422 1444.16 352.422ZM1443.74 418.761C1427.09 418.761 1414.08 405.605 1414.08 388.95C1414.08 372.295 1427.09 359.14 1443.74 359.14C1460.4 359.14 1473.42 372.295 1473.42 388.95C1473.42 405.605 1460.4 418.761 1443.74 418.761Z" fill="#ADAFBB"/>
<path d="M1558.16 353.962V369.778C1552.28 359.28 1541.51 352.422 1528.07 352.422C1508.2 352.422 1491.82 368.235 1491.82 388.95C1491.82 409.664 1508.2 425.478 1528.07 425.478C1541.51 425.478 1552.28 418.621 1558.16 408.122V423.939H1565.3V353.962H1558.16ZM1528.63 418.761C1511.98 418.761 1498.96 405.605 1498.96 388.95C1498.96 372.295 1511.98 359.14 1528.63 359.14C1545.29 359.14 1558.16 372.295 1558.16 388.95C1558.16 405.605 1545.29 418.761 1528.63 418.761Z" fill="#ADAFBB"/>
<path d="M1618.13 352.422C1607.36 352.422 1598.4 356.901 1593.08 367.257V353.962H1586.09V423.939H1593.08V386.99C1593.08 368.095 1603.86 359.14 1617.58 359.14C1630.73 359.14 1638.15 367.538 1638.15 380.414V423.939H1645.28V380.414C1645.28 363.478 1634.79 352.422 1618.13 352.422Z" fill="#ADAFBB"/>
<path d="M1714.24 353.961L1689.89 416.241L1661.62 353.961H1654.06L1686.25 425.198L1684.71 428.977C1680.37 439.192 1673.23 446.189 1663.86 445.351V451.928C1675.89 452.909 1686.25 443.812 1691.57 430.375L1721.8 353.961H1714.24Z" fill="#ADAFBB"/>
<path d="M332.119 56.2021C408.304 131.344 408.543 253.408 332.652 328.842L195.24 465.425L57.2953 329.37C-18.8897 254.228 -19.1284 132.163 56.7621 56.7299C132.653 -18.7033 255.934 -18.9397 332.119 56.2021Z" fill="#07847F"/>
<path d="M190.357 299.306C230.671 301.298 260.298 281.613 261.956 246.005C263.775 206.969 232.667 195.65 204.947 185.821C176.442 175.688 172.204 169.663 172.597 161.223C172.941 153.837 179.879 147.571 193.14 148.226C210.114 149.065 218.486 157.674 224.237 171.176L261.013 152.109C248.752 124.273 225.558 108.587 195.056 107.079C162.964 105.494 131.77 124.573 130.112 160.181C128.466 195.525 154.905 210.049 182.132 219.061C209.624 228.086 220.024 233.094 219.496 244.436C219.164 251.558 213.757 259.221 193.599 258.225C172.647 257.19 161.721 246.34 155.803 230.714L118.219 250.006C127.297 277.685 151.369 297.38 190.357 299.306Z" fill="#F5F6FA"/>
<mask id="mask0_0_9" style="mask-type:alpha" maskUnits="userSpaceOnUse" x="0" y="0" width="390" height="466">
<path d="M332.118 56.2021C408.304 131.344 408.542 253.408 332.652 328.842L195.24 465.425L57.2952 329.37C-18.8897 254.228 -19.1284 132.163 56.7621 56.7299C132.653 -18.7033 255.934 -18.9397 332.118 56.2021Z" fill="#FD6B36"/>
</mask>
<g mask="url(#mask0_0_9)">
<path d="M195.109 467.436L122.647 395.689L195.109 323.942L267.571 395.689L195.109 467.436Z" fill="#FD6B36"/>
</g>
</g>
<defs>
<clipPath id="clip0_0_9">
<rect width="1823" height="467.436" fill="white"/>
</clipPath>
</defs>
</svg>
